<svg width="29" height="29" viewBox="0 0 29 29" fill="none" xmlns="http://www.w3.org/2000/svg">
<path id="Facebook" fill-rule="evenodd" clip-rule="evenodd" d="M14.1488 28.7396L14.1615 28.7397H14.1572L14.1488 28.7396ZM14.249 28.7397H14.2447L14.2574 28.7396L14.249 28.7397ZM14.1055 28.7394L14.1192 28.7395H14.1113L14.1055 28.7394ZM14.2949 28.7395H14.287L14.3007 28.7394L14.2949 28.7395ZM14.0636 28.7391L14.0728 28.7391L14.0654 28.7391H14.0636ZM14.3407 28.7391L14.3334 28.7391L14.3426 28.7391H14.3407ZM14.3866 28.7386L14.3834 28.7386L14.3957 28.7385L14.3866 28.7386ZM14.0105 28.7385L14.0228 28.7386L14.0196 28.7386L14.0105 28.7385ZM14.4323 28.7379L14.4249 28.738L14.4401 28.7378L14.4323 28.7379ZM13.9661 28.7378L13.9813 28.738L13.9738 28.7379L13.9661 28.7378ZM14.4781 28.7371L14.468 28.7373L14.4821 28.737L14.4781 28.7371ZM13.9241 28.737L13.9382 28.7373L13.9281 28.7371L13.9241 28.737ZM13.8722 28.736L13.8846 28.7362L13.8824 28.7362L13.8722 28.736ZM14.5238 28.7362L14.5216 28.7362L14.534 28.736L14.5238 28.7362ZM13.8265 28.7348L13.8437 28.7353L13.8368 28.7351L13.8265 28.7348ZM14.5694 28.7351L14.5625 28.7353L14.5796 28.7348L14.5694 28.7351ZM14.6151 28.7339L14.6039 28.7342L14.6215 28.7337L14.6151 28.7339ZM13.7847 28.7337L13.8022 28.7342L13.7911 28.7339L13.7847 28.7337ZM13.7448 28.7325L13.7573 28.7329L13.7455 28.7325L13.7347 28.7321L13.7448 28.7325ZM14.6607 28.7325L14.6489 28.7329L14.6614 28.7325L14.6715 28.7321L14.6607 28.7325ZM14.7063 28.731L14.7 28.7312L14.7192 28.7305L14.7063 28.731ZM13.687 28.7305L13.7062 28.7312L13.6999 28.731L13.687 28.7305ZM13.6455 28.729L13.6655 28.7297L13.6544 28.7293L13.6455 28.729ZM14.7518 28.7293L14.7407 28.7297L14.7607 28.729L14.7518 28.7293ZM13.6047 28.7273L13.6243 28.7281L13.609 28.7275L13.6047 28.7273ZM14.7972 28.7275L14.7819 28.7281L14.8015 28.7273L14.7972 28.7275ZM13.5475 28.7248L13.5686 28.7258L13.5635 28.7256L13.5475 28.7248ZM14.8427 28.7256L14.8376 28.7258L14.8587 28.7248L14.8427 28.7256ZM13.5065 28.7229L13.5284 28.7239L13.5181 28.7235L13.5065 28.7229ZM14.8881 28.7235L14.8778 28.7239L14.8997 28.7229L14.8881 28.7235ZM13.4661 28.7209L13.4882 28.722L13.4727 28.7213L13.4661 28.7209ZM14.9335 28.7213L14.918 28.722L14.94 28.7209L14.9335 28.7213ZM14.9789 28.7189L14.9588 28.7199L14.9766 28.719L14.9976 28.7178L14.9789 28.7189ZM13.4296 28.719L13.4474 28.7199L13.4273 28.7189L13.4086 28.7178L13.4296 28.719ZM15.0242 28.7163L15.0153 28.7168L15.0378 28.7156L15.0242 28.7163ZM13.3684 28.7156L13.3909 28.7168L13.382 28.7163L13.3684 28.7156ZM13.3283 28.7132L13.3508 28.7145L13.3368 28.7137L13.3283 28.7132ZM15.0694 28.7137L15.0554 28.7145L15.0779 28.7132L15.0694 28.7137ZM13.2901 28.7108L13.3104 28.7121L13.2915 28.7109L13.2725 28.7097L13.2901 28.7108ZM15.1147 28.7109L15.0958 28.7121L15.1161 28.7108L15.1337 28.7097L15.1147 28.7109ZM15.1599 28.708L15.1531 28.7084L15.1746 28.707L15.1599 28.708ZM13.2316 28.707L13.2531 28.7084L13.2463 28.708L13.2316 28.707ZM13.1916 28.7042L13.2127 28.7057L13.2012 28.7049L13.1916 28.7042ZM15.205 28.7049L15.1935 28.7057L15.2146 28.7042L15.205 28.7049ZM13.1517 28.7014L13.1711 28.7027L13.1561 28.7017L13.1517 28.7014ZM15.2501 28.7017L15.2351 28.7027L15.2545 28.7014L15.2501 28.7017ZM13.0981 28.6973L13.1151 28.6986L13.111 28.6983L13.0981 28.6973ZM15.2952 28.6983L15.2911 28.6986L15.3081 28.6973L15.2952 28.6983ZM15.3402 28.6948L15.3321 28.6954L15.3494 28.694L15.3402 28.6948ZM13.0568 28.694L13.0741 28.6954L13.066 28.6948L13.0568 28.694ZM13.0166 28.6908L13.0312 28.692L13.0209 28.6911L13.0166 28.6908ZM15.3853 28.6911L15.375 28.692L15.3896 28.6908L15.3853 28.6911ZM12.9723 28.687L12.9767 28.6874L12.976 28.6874L12.9723 28.687ZM15.4302 28.6874L15.4295 28.6874L15.4339 28.687L15.4302 28.6874ZM15.4752 28.6834L15.4712 28.6838L15.4812 28.6829L15.4752 28.6834ZM12.925 28.6829L12.935 28.6838L12.931 28.6834L12.925 28.6829ZM12.8834 28.6791L12.8909 28.6798L12.8862 28.6794L12.8834 28.6791ZM15.52 28.6794L15.5153 28.6798L15.5228 28.6791L15.52 28.6794ZM11.9839 28.567C5.1975 27.5004 0 21.6206 0 14.5366C0 6.69772 6.36421 0.333496 14.2031 0.333496C22.042 0.333496 28.4062 6.69772 28.4062 14.5366C28.4062 21.6206 23.2087 27.5004 16.4223 28.567V18.6422H19.7318L20.3615 14.5366H16.4223V11.8724C16.4223 10.7492 16.9726 9.6543 18.7369 9.6543H20.5279V6.159C20.5279 6.159 18.9025 5.88159 17.3486 5.88159C14.1043 5.88159 11.9839 7.84784 11.9839 11.4075V14.5366H8.37761V18.6422H11.9839V28.567Z" fill="#223C53"/>
</svg>
