<svg width="29" height="30" viewBox="0 0 29 30" fill="none" xmlns="http://www.w3.org/2000/svg">
<g id="Linkedin">
<path id="Vector" d="M15.2748 13.7376V13.6919C15.2653 13.7073 15.2552 13.7227 15.2451 13.7376H15.2748Z" fill="#223C53"/>
<path id="Vector_2" d="M26.3061 0.842773H2.09835C0.939689 0.842773 0 1.76005 0 2.89055V27.3817C0 28.5116 0.939689 29.4289 2.09835 29.4289H26.3061C27.4665 29.4289 28.4062 28.511 28.4062 27.3817V2.89055C28.4062 1.75947 27.4659 0.842773 26.3061 0.842773ZM8.61008 24.7729H4.3197V11.865H8.61008V24.7729ZM6.46518 10.1017H6.43644C4.99731 10.1017 4.06624 9.11031 4.06624 7.87176C4.06624 6.60562 5.02604 5.6418 6.49334 5.6418C7.96121 5.6418 8.86411 6.60562 8.89285 7.87176C8.89285 9.11031 7.96063 10.1017 6.46518 10.1017ZM24.0813 24.7729H19.7909V17.8658C19.7909 16.1313 19.1702 14.9473 17.6179 14.9473C16.4328 14.9473 15.727 15.7456 15.4161 16.5169C15.3028 16.7922 15.2753 17.1773 15.2753 17.5635V24.7724H10.9849C10.9849 24.7724 11.0412 13.0742 10.9849 11.8644H15.2753V13.6915C15.8454 12.8122 16.865 11.5598 19.1426 11.5598C21.9652 11.5598 24.0819 13.4053 24.0819 17.3704V24.7729H24.0813Z" fill="#223C53"/>
</g>
</svg>
