<svg width="29" height="24" viewBox="0 0 29 24" fill="none" xmlns="http://www.w3.org/2000/svg">
<path id="Twitter" d="M8.93319 23.8612C19.6525 23.8612 25.5156 14.6803 25.5156 6.71863C25.5156 6.4579 25.5156 6.19831 25.4986 5.93986C26.6391 5.08694 27.6237 4.03097 28.4062 2.82124C27.3426 3.30847 26.2141 3.62794 25.0588 3.76915C26.2752 3.01642 27.1861 1.83158 27.621 0.436702C26.4771 1.13844 25.2254 1.63307 23.9203 1.89914C22.8183 0.687745 21.2793 0 19.6708 0C16.4706 0 13.8373 2.7223 13.8373 6.03054C13.8373 6.4895 13.888 6.94702 13.9883 7.39404C9.30475 7.15138 4.93497 4.86119 1.97706 1.09921C0.438909 3.83654 1.23478 7.38395 3.78141 9.14188C2.85405 9.11349 1.9466 8.85482 1.13625 8.38778V8.46412C1.13702 11.3212 3.10288 13.8045 5.8119 14.3702C4.95394 14.6121 4.05354 14.6474 3.18038 14.4736C3.94197 16.9218 6.13812 18.6093 8.62527 18.6576C6.56194 20.3339 4.01165 21.2445 1.38735 21.2418C0.923645 21.2409 0.46038 21.2119 0 21.1548C2.66497 22.9228 5.76668 23.8609 8.93319 23.8565" fill="#223C53"/>
</svg>
