<svg width="29" height="29" viewBox="0 0 29 29" fill="none" xmlns="http://www.w3.org/2000/svg">
<g id="Whatsapp">
<path id="Vector" fill-rule="evenodd" clip-rule="evenodd" d="M24.2674 4.50043C21.5971 1.82701 18.0459 0.354089 14.2624 0.352539C6.46661 0.352539 0.121657 6.69697 0.118614 14.4952C0.117523 16.988 0.768812 19.4211 2.00657 21.566L0 28.8951L7.49779 26.9284C9.56361 28.0551 11.8896 28.6491 14.2567 28.6499H14.2625C14.2629 28.6499 14.2621 28.6499 14.2626 28.6499C22.0576 28.6499 28.4029 22.3048 28.4062 14.5065C28.4076 10.7272 26.9377 7.17373 24.2674 4.50043ZM14.2624 26.2612H14.2577C12.1483 26.2604 10.0794 25.6936 8.27441 24.6226L7.8452 24.3679L3.3959 25.535L4.58353 21.197L4.30399 20.7521C3.12726 18.8805 2.50577 16.7172 2.50669 14.496C2.50922 8.01442 7.78291 2.7413 14.2672 2.7413C17.4071 2.74228 20.3587 3.96672 22.5782 6.18876C24.7977 8.4108 26.0193 11.3644 26.0181 14.5055C26.0154 20.9875 20.7419 26.2612 14.2624 26.2612Z" fill="#223C53"/>
<path id="Vector_2" fill-rule="evenodd" clip-rule="evenodd" d="M20.7102 17.4561C20.3568 17.2792 18.6193 16.4244 18.2953 16.3063C17.9714 16.1884 17.7358 16.1294 17.5002 16.4832C17.2647 16.8369 16.5874 17.633 16.3812 17.8689C16.1751 18.1046 15.9689 18.1343 15.6155 17.9573C15.2622 17.7804 14.1235 17.4073 12.7736 16.2033C11.723 15.2661 11.0138 14.1089 10.8075 13.755C10.6014 13.4013 10.7856 13.2101 10.9625 13.0338C11.1215 12.8754 11.316 12.6211 11.4927 12.4147C11.6693 12.2084 11.7283 12.0608 11.8461 11.8251C11.9639 11.5892 11.905 11.3828 11.8166 11.206C11.7283 11.0291 11.0215 9.28964 10.727 8.58191C10.4401 7.8929 10.1488 7.98626 9.93182 7.97529C9.72599 7.96501 9.49008 7.96289 9.25452 7.96289C9.01895 7.96289 8.63601 8.05136 8.31215 8.40508C7.98823 8.75892 7.0752 9.61396 7.0752 11.3533C7.0752 13.0928 8.34154 14.7733 8.51826 15.0091C8.69492 15.245 11.0103 18.8145 14.5554 20.3453C15.3985 20.7095 16.0568 20.9269 16.57 21.0897C17.4166 21.3587 18.1871 21.3207 18.796 21.2297C19.475 21.1283 20.8869 20.3749 21.1813 19.5494C21.4759 18.7238 21.4759 18.0162 21.3875 17.8689C21.2992 17.7215 21.0635 17.633 20.7102 17.4561Z" fill="#223C53"/>
</g>
</svg>
